<svg width="506" height="99" viewBox="0 0 506 99" fill="none" xmlns="http://www.w3.org/2000/svg">
<path d="M0.384498 91.264C3.11516 91.264 5.07783 90.8373 6.2725 89.984C7.46717 89.1307 8.0645 87.7227 8.0645 85.76V10.24C8.0645 8.27733 7.46717 6.86933 6.2725 6.016C5.07783 5.16266 3.11516 4.73599 0.384498 4.73599V-7.62939e-06H22.9125L49.9205 60.672V10.24C49.9205 8.27733 49.3232 6.86933 48.1285 6.016C46.9338 5.16266 44.9712 4.73599 42.2405 4.73599V-7.62939e-06H63.6165V4.73599C60.8858 4.73599 58.9232 5.16266 57.7285 6.016C56.5338 6.86933 55.9365 8.27733 55.9365 10.24V96H49.6645L14.0805 15.36V85.76C14.0805 87.7227 14.6778 89.1307 15.8725 89.984C17.0672 90.8373 19.0298 91.264 21.7605 91.264V96H0.384498V91.264ZM83.1645 91.264C85.8952 91.264 87.8578 90.8373 89.0525 89.984C90.2472 89.1307 90.8445 87.7227 90.8445 85.76V37.12C90.8445 35.1573 90.2472 33.7493 89.0525 32.896C87.8578 32.0427 85.8952 31.616 83.1645 31.616V26.88H121.053C123.271 26.88 124.85 26.7093 125.789 26.368C126.727 25.9413 127.239 25.3013 127.325 24.448H131.549L136.797 45.184L132.573 46.336C131.037 42.24 129.543 39.168 128.093 37.12C126.727 34.9867 124.935 33.5787 122.716 32.896C120.583 32.2133 117.639 31.872 113.884 31.872H104.796V59.392H114.013C117.341 59.392 119.005 57.1733 119.005 52.736H123.101V72.192H119.005C119.005 66.9867 117.341 64.384 114.013 64.384H104.796V91.008H118.109C121.949 91.008 124.893 90.5813 126.941 89.728C129.074 88.8747 130.61 87.2533 131.549 84.864C132.573 82.3893 133.341 78.8053 133.853 74.112H138.076V98.688H133.725C133.383 97.664 132.573 96.9387 131.292 96.512C130.013 96.1707 127.879 96 124.893 96H83.1645V91.264ZM168.764 91.264C171.495 91.264 173.458 90.8373 174.653 89.984C175.847 89.1307 176.444 87.7227 176.444 85.76V31.872H174.268C171.538 31.872 169.362 32.2987 167.74 33.152C166.119 34.0053 164.711 35.6693 163.516 38.144C162.407 40.6187 161.17 44.3307 159.804 49.28L155.452 48.128L159.804 23.552H163.773C164.028 25.7707 165.991 26.88 169.661 26.88H197.565C201.234 26.88 203.197 25.7707 203.453 23.552H207.421L211.773 48.128L207.421 49.28C206.055 44.3307 204.775 40.6187 203.581 38.144C202.471 35.6693 201.106 34.0053 199.485 33.152C197.863 32.2987 195.687 31.872 192.957 31.872H190.525V85.76C190.525 87.7227 191.122 89.1307 192.317 89.984C193.511 90.8373 195.474 91.264 198.205 91.264V96H168.764V91.264ZM230.26 91.264C232.99 91.264 234.953 90.8373 236.148 89.984C237.342 89.1307 237.94 87.7227 237.94 85.76V37.12C237.94 35.1573 237.342 33.7493 236.148 32.896C234.953 32.0427 232.99 31.616 230.26 31.616V26.88H260.468C268.233 26.88 273.95 28.7147 277.62 32.384C281.374 35.968 283.252 41.5147 283.252 49.024C283.252 56.3627 281.374 61.824 277.62 65.408C273.95 68.9067 268.233 70.656 260.468 70.656H257.14V65.92H260.468C263.284 65.92 265.545 64.768 267.252 62.464C268.958 60.16 269.812 57.1307 269.812 53.376V44.288C269.812 40.5333 268.958 37.5467 267.252 35.328C265.545 33.024 263.284 31.872 260.468 31.872H252.02V85.76C252.02 87.7227 252.617 89.1307 253.812 89.984C255.006 90.8373 256.969 91.264 259.7 91.264V96H230.26V91.264ZM303.994 91.264C306.725 91.264 308.688 90.8373 309.882 89.984C311.077 89.1307 311.674 87.7227 311.674 85.76V37.12C311.674 35.1573 311.077 33.7493 309.882 32.896C308.688 32.0427 306.725 31.616 303.994 31.616V26.88H333.434V31.616C330.704 31.616 328.741 32.0427 327.546 32.896C326.352 33.7493 325.754 35.1573 325.754 37.12V91.008H333.818C337.658 91.008 340.602 90.5813 342.65 89.728C344.698 88.7893 346.234 87.0827 347.258 84.608C348.282 82.1333 349.05 78.5493 349.562 73.856H353.786V98.688H349.434C349.093 97.664 348.282 96.9387 347.002 96.512C345.722 96.1707 343.589 96 340.602 96H303.994V91.264ZM401.109 24.96C408.96 24.96 415.019 27.3493 419.285 32.128C423.552 36.9067 425.685 43.648 425.685 52.352V70.528C425.685 88.7893 417.493 97.92 401.109 97.92C393.088 97.92 386.944 95.5733 382.677 90.88C378.411 86.1867 376.277 79.4027 376.277 70.528V52.352C376.277 43.3067 378.368 36.48 382.549 31.872C386.816 27.264 393.003 24.96 401.109 24.96ZM401.109 92.928C404.181 92.928 406.699 91.8187 408.661 89.6C410.624 87.296 411.605 84.352 411.605 80.768V42.24C411.605 38.656 410.624 35.712 408.661 33.408C406.699 31.104 404.181 29.952 401.109 29.952C398.123 29.952 395.605 31.1467 393.557 33.536C391.595 35.84 390.613 38.7413 390.613 42.24V80.768C390.613 84.4373 391.552 87.3813 393.429 89.6C395.392 91.8187 397.952 92.928 401.109 92.928ZM445.119 31.232V26.88H474.815V31.232C468.244 31.232 466.068 33.152 468.287 36.992L477.119 51.968L487.743 35.968C488.681 34.5173 488.596 33.3653 487.487 32.512C486.377 31.6587 484.457 31.232 481.727 31.232V26.88H502.975V31.232C500.671 31.232 498.921 31.616 497.727 32.384C496.532 33.0667 495.167 34.6027 493.631 36.992L480.319 57.6L497.855 87.552C499.476 90.368 502.121 91.776 505.791 91.776V96H476.095V91.776C478.399 91.776 480.276 91.2213 481.727 90.112C483.177 89.0027 483.561 87.8507 482.879 86.656L472.383 68.608L461.887 86.528C460.948 88.1493 460.991 89.4293 462.015 90.368C463.039 91.3067 464.873 91.776 467.519 91.776V96H446.143V91.776C448.447 91.776 450.239 91.3493 451.519 90.496C452.884 89.6427 454.249 88.064 455.615 85.76L469.183 63.104L453.183 35.712C452.244 34.0053 451.177 32.8533 449.983 32.256C448.788 31.5733 447.167 31.232 445.119 31.232Z" fill="url(#paint0_linear_7_2)"/>
<defs>
<linearGradient id="paint0_linear_7_2" x1="291.5" y1="-75" x2="291" y2="107" gradientUnits="userSpaceOnUse">
<stop stop-color="#5246FF"/>
<stop offset="1" stop-color="#29EDFF"/>
</linearGradient>
</defs>
</svg>
